<svg width="21" height="21" viewBox="0 0 21 21" fill="none" xmlns="http://www.w3.org/2000/svg">
<path fill-rule="evenodd" clip-rule="evenodd" d="M19.5036 15.1464C20.3439 13.6777 20.8228 11.9845 20.8228 10.182C20.8228 4.55862 16.1615 0 10.4114 0C4.66135 0 0 4.55862 0 10.182C0 15.8053 4.66135 20.3639 10.4114 20.3639C11.942 20.3639 13.3955 20.0409 14.7044 19.4608L21 21L19.5036 15.1464ZM0.946492 10.182C0.946492 15.2941 5.18408 19.4383 10.4114 19.4383C11.9434 19.4383 13.3904 19.0823 14.6706 18.4504V18.5127L14.7798 18.5483L14.7854 18.5265L19.6992 19.7278L18.4707 14.9224L18.5552 14.9017C19.3944 13.5197 19.8763 11.9059 19.8763 10.182C19.8763 5.06983 15.6388 0.925633 10.4114 0.925633C5.18408 0.925633 0.946492 5.06983 0.946492 10.182Z" fill="black"/>
</svg>
